<svg xmlns="http://www.w3.org/2000/svg" width="1024" height="1024" viewBox="0 0 1024 1024" version="1.1"><path d="M 79.500 422 C 77.850 422.420, 74.806 422.817, 72.736 422.882 C 70.666 422.947, 68.191 423.406, 67.236 423.903 C 66.281 424.399, 63.475 425.370, 61 426.061 C 56.973 427.185, 51.532 429.626, 42.500 434.359 C 37.069 437.206, 25.581 447.353, 19.591 454.595 C 13.304 462.195, 6.273 474.633, 4.100 482 C 3.369 484.475, 2.261 487.581, 1.636 488.901 C 0.083 492.185, 0.083 531.815, 1.636 535.099 C 2.261 536.419, 3.369 539.525, 4.100 542 C 6.264 549.335, 13.362 561.921, 19.586 569.460 C 31.157 583.474, 45.480 593.139, 63.157 598.862 L 69.814 601.018 512.051 601.004 L 954.288 600.991 963.362 597.876 C 968.353 596.162, 973.351 594.181, 974.468 593.475 C 975.586 592.768, 978.300 591.256, 980.500 590.116 C 986.853 586.824, 998.094 577.114, 1004.414 569.460 C 1010.658 561.897, 1017.759 549.292, 1019.884 542 C 1020.605 539.525, 1021.601 536.719, 1022.097 535.764 C 1022.594 534.809, 1023 533.148, 1023 532.073 C 1023 530.998, 1023.450 529.840, 1024 529.500 C 1024.607 529.125, 1025 521.803, 1025 510.882 C 1025 499.137, 1024.653 493.097, 1024 493.500 C 1023.450 493.840, 1023 493.185, 1023 492.045 C 1023 490.906, 1022.605 489.191, 1022.123 488.236 C 1021.640 487.281, 1020.711 484.700, 1020.058 482.500 C 1017.653 474.398, 1010.369 461.627, 1003.821 454.032 C 987.968 435.645, 969.908 425.627, 946.231 422.087 C 937.744 420.818, 84.483 420.732, 79.500 422 M 0.415 512 C 0.415 522.175, 0.564 526.337, 0.745 521.250 C 0.927 516.162, 0.927 507.837, 0.745 502.750 C 0.564 497.662, 0.415 501.825, 0.415 512" stroke="none" fill="#000000" fill-rule="evenodd"/></svg>