<svg xmlns="http://www.w3.org/2000/svg" width="1024" height="1024" viewBox="0 0 1024 1024" version="1.1"><path d="M 492.500 0.623 C 491.400 0.887, 489.600 1.479, 488.500 1.938 C 487.400 2.397, 484.475 3.369, 482 4.100 C 474.633 6.273, 462.195 13.304, 454.595 19.591 C 446.835 26.010, 437.159 37.180, 433.884 43.500 C 432.744 45.700, 431.232 48.414, 430.525 49.532 C 428.313 53.028, 423.347 69.173, 422.148 76.769 C 421.317 82.027, 421 130.617, 421 252.505 L 421 420.972 249.750 421.349 C 155.563 421.556, 76.475 422.037, 74 422.419 C 71.525 422.801, 68.600 423.487, 67.500 423.943 C 66.400 424.399, 63.475 425.345, 61 426.044 C 56.971 427.184, 51.494 429.646, 42.500 434.359 C 37.069 437.206, 25.581 447.353, 19.591 454.595 C 13.304 462.195, 6.273 474.633, 4.100 482 C 3.369 484.475, 2.261 487.581, 1.636 488.901 C 0.083 492.185, 0.083 531.815, 1.636 535.099 C 2.261 536.419, 3.369 539.525, 4.100 542 C 6.264 549.335, 13.362 561.921, 19.586 569.460 C 34.290 587.268, 53.476 598.096, 77.115 601.928 C 81.635 602.660, 137.145 603, 252.365 603 L 421 603 421 771.635 C 421 886.855, 421.340 942.365, 422.072 946.885 C 425.904 970.524, 436.732 989.710, 454.540 1004.414 C 462.079 1010.638, 474.665 1017.736, 482 1019.900 C 484.475 1020.631, 487.581 1021.739, 488.901 1022.364 C 490.453 1023.098, 498.626 1023.500, 512 1023.500 C 525.374 1023.500, 533.547 1023.098, 535.099 1022.364 C 536.419 1021.739, 539.525 1020.631, 542 1019.900 C 549.367 1017.727, 561.805 1010.696, 569.405 1004.409 C 587.619 989.343, 598.334 970.166, 601.913 946.231 C 602.662 941.220, 603 886.796, 603 770.981 L 603 603 771.481 603 C 893.379 603, 941.973 602.683, 947.231 601.852 C 954.827 600.653, 970.972 595.687, 974.468 593.475 C 975.586 592.768, 978.300 591.256, 980.500 590.116 C 986.853 586.824, 998.094 577.114, 1004.414 569.460 C 1010.658 561.897, 1017.759 549.292, 1019.884 542 C 1020.605 539.525, 1021.601 536.719, 1022.097 535.764 C 1022.594 534.809, 1023 533.148, 1023 532.073 C 1023 530.998, 1023.450 529.840, 1024 529.500 C 1024.607 529.125, 1025 521.803, 1025 510.882 C 1025 499.137, 1024.653 493.097, 1024 493.500 C 1023.450 493.840, 1023 493.185, 1023 492.045 C 1023 490.906, 1022.605 489.191, 1022.123 488.236 C 1021.640 487.281, 1020.711 484.700, 1020.058 482.500 C 1017.653 474.398, 1010.369 461.627, 1003.821 454.032 C 987.968 435.645, 969.908 425.627, 946.231 422.087 C 941.220 421.338, 886.796 421, 770.981 421 L 603 421 603 252.365 C 603 137.145, 602.660 81.635, 601.928 77.115 C 598.096 53.476, 587.268 34.290, 569.460 19.586 C 561.897 13.342, 549.292 6.241, 542 4.116 C 539.525 3.395, 536.600 2.289, 535.500 1.659 C 533.498 0.512, 496.663 -0.375, 492.500 0.623 M 0.415 512 C 0.415 522.175, 0.564 526.337, 0.745 521.250 C 0.927 516.162, 0.927 507.837, 0.745 502.750 C 0.564 497.662, 0.415 501.825, 0.415 512" stroke="none" fill="#000000" fill-rule="evenodd"/></svg>